<svg id="svg" version="1.1" width="500" height="500" xmlns="http://www.w3.org/2000/svg" xmlns:xlink="http://www.w3.org/1999/xlink" style="display: block;"><g id="svgg"><path id="path0" d="M129.600 2.800 C 129.600 5.533,129.676 5.600,132.800 5.600 C 135.924 5.600,136.000 5.533,136.000 2.800 C 136.000 0.067,135.924 0.000,132.800 0.000 C 129.676 0.000,129.600 0.067,129.600 2.800 M274.602 2.800 C 274.611 4.560,274.774 5.186,274.966 4.191 C 275.157 3.196,275.150 1.756,274.950 0.991 C 274.749 0.226,274.593 1.040,274.602 2.800 M104.600 6.464 C 103.830 6.913,103.205 8.072,103.212 9.040 C 103.223 10.731,103.263 10.722,104.233 8.804 C 104.830 7.625,106.217 6.600,107.622 6.299 C 109.768 5.839,109.805 5.782,108.000 5.719 C 106.900 5.680,105.370 6.016,104.600 6.464 M293.600 6.155 C 294.260 6.391,295.250 7.151,295.800 7.845 C 296.710 8.992,296.800 8.991,296.800 7.838 C 296.800 6.584,295.139 5.541,293.335 5.663 C 292.821 5.698,292.940 5.919,293.600 6.155 M312.800 17.386 C 315.549 17.891,316.682 18.973,317.531 21.901 L 318.256 24.400 318.328 21.924 C 318.418 18.844,316.264 16.763,313.137 16.909 C 310.962 17.010,310.939 17.043,312.800 17.386 M86.720 21.920 C 84.043 24.597,83.142 27.200,84.894 27.200 C 85.989 27.200,92.000 21.109,92.000 19.999 C 92.000 18.334,89.337 19.303,86.720 21.920 M71.222 28.373 C 70.687 29.018,70.434 30.008,70.661 30.573 C 70.917 31.209,71.098 31.057,71.137 30.174 C 71.172 29.390,72.010 28.423,73.000 28.025 C 74.218 27.535,74.379 27.285,73.498 27.251 C 72.782 27.223,71.758 27.728,71.222 28.373 M59.386 44.000 C 59.386 45.540,59.550 46.170,59.751 45.400 C 59.953 44.630,59.953 43.370,59.751 42.600 C 59.550 41.830,59.386 42.460,59.386 44.000 M28.466 71.453 C 27.605 72.082,27.185 73.128,27.420 74.053 C 27.775 75.444,27.824 75.425,27.907 73.867 C 27.967 72.750,28.782 71.848,30.200 71.330 C 31.410 70.888,31.839 70.498,31.153 70.463 C 30.467 70.428,29.258 70.874,28.466 71.453 M376.350 82.391 C 380.357 83.162,382.639 85.848,382.235 89.316 C 382.070 90.730,382.219 91.712,382.567 91.497 C 386.301 89.189,381.655 81.555,376.600 81.692 L 373.200 81.784 376.350 82.391 M7.739 104.200 C 6.853 104.848,6.270 106.609,6.082 109.200 C 5.923 111.400,5.944 112.300,6.129 111.200 C 6.827 107.043,8.199 104.780,10.301 104.320 C 13.843 103.544,14.098 103.329,11.553 103.263 C 10.207 103.228,8.491 103.650,7.739 104.200 M392.200 104.064 C 392.970 104.513,393.600 105.462,393.600 106.173 C 393.600 106.885,393.813 107.254,394.073 106.994 C 394.970 106.097,393.489 103.200,392.146 103.224 C 390.918 103.247,390.923 103.320,392.200 104.064 M166.478 152.119 C 165.349 155.360,165.415 158.198,166.692 161.192 L 167.712 163.584 169.212 161.294 C 170.846 158.800,171.026 155.246,169.691 151.800 C 168.575 148.917,167.559 149.018,166.478 152.119 M177.106 167.033 C 175.995 167.748,177.600 179.285,178.800 179.211 C 179.673 179.157,179.411 167.996,178.514 167.033 C 178.224 166.722,177.590 166.722,177.106 167.033 M186.388 186.249 C 184.171 188.044,184.638 189.996,187.607 191.349 C 190.836 192.820,192.894 190.463,191.043 187.412 C 189.339 184.603,188.637 184.428,186.388 186.249 M198.783 199.228 C 198.073 200.377,200.365 202.400,202.375 202.400 C 204.923 202.400,207.107 204.871,208.356 209.166 C 209.775 214.050,210.568 214.925,212.004 213.195 C 213.031 211.958,212.442 200.368,211.316 199.672 C 209.661 198.649,199.366 198.285,198.783 199.228 M219.038 220.286 C 217.770 221.249,217.811 221.587,219.638 225.196 C 220.717 227.327,221.600 229.550,221.600 230.136 C 221.600 230.721,222.320 231.200,223.200 231.200 C 224.080 231.200,224.800 231.560,224.800 232.000 C 224.800 232.440,225.290 232.800,225.888 232.800 C 226.487 232.800,228.287 233.689,229.888 234.776 C 232.666 236.661,232.806 236.679,232.920 235.176 C 232.986 234.309,233.076 233.150,233.120 232.600 C 233.170 231.970,231.719 231.452,229.200 231.200 L 225.200 230.800 225.471 226.295 C 225.823 220.429,222.695 217.507,219.038 220.286 M307.263 263.000 C 307.333 267.183,307.721 266.844,308.181 262.200 C 308.345 260.550,308.191 259.200,307.839 259.200 C 307.488 259.200,307.228 260.910,307.263 263.000 M202.016 270.800 C 202.598 277.085,204.508 280.853,208.000 282.603 C 211.571 284.394,212.509 282.460,209.295 279.932 C 206.273 277.554,203.808 273.755,202.624 269.649 L 201.572 266.000 202.016 270.800 M253.786 275.200 C 253.786 276.740,253.950 277.370,254.151 276.600 C 254.353 275.830,254.353 274.570,254.151 273.800 C 253.950 273.030,253.786 273.660,253.786 275.200 M5.959 291.499 C 6.234 295.523,7.232 296.813,10.000 296.725 C 11.245 296.685,11.111 296.495,9.398 295.870 C 8.171 295.422,7.031 294.298,6.822 293.333 C 6.616 292.380,6.278 290.700,6.070 289.600 C 5.862 288.500,5.812 289.355,5.959 291.499 M22.339 309.487 C 22.777 310.304,24.050 311.573,25.168 312.305 L 27.200 313.637 27.200 310.818 C 27.200 308.125,27.074 308.000,24.372 308.000 C 21.863 308.000,21.634 308.168,22.339 309.487 M382.126 314.370 C 381.762 316.189,381.040 316.917,379.026 317.498 C 376.539 318.216,376.513 318.260,378.543 318.328 C 381.187 318.417,383.200 316.522,383.200 313.943 C 383.200 311.299,382.700 311.498,382.126 314.370 M27.251 326.502 C 27.187 328.147,29.219 329.883,30.573 329.339 C 31.209 329.083,31.057 328.902,30.174 328.863 C 29.390 328.828,28.423 327.990,28.025 327.000 C 27.535 325.782,27.285 325.621,27.251 326.502 M253.522 334.800 C 253.259 337.880,253.169 340.550,253.322 340.733 C 254.133 341.706,254.452 339.607,254.239 334.695 L 254.000 329.200 253.522 334.800 M184.000 361.200 C 182.020 361.774,180.760 362.294,181.200 362.356 C 181.640 362.419,183.600 362.778,185.556 363.156 C 190.315 364.074,193.988 362.859,191.647 361.140 C 189.819 359.798,188.811 359.806,184.000 361.200 M81.692 376.600 C 81.555 381.655,89.189 386.301,91.497 382.567 C 91.712 382.219,90.730 382.070,89.316 382.235 C 85.848 382.639,83.162 380.357,82.391 376.350 L 81.784 373.200 81.692 376.600 M316.229 381.400 C 315.088 382.559,314.839 383.200,315.531 383.200 C 316.780 383.200,318.679 381.144,318.276 380.227 C 318.124 379.882,317.203 380.410,316.229 381.400 M103.224 392.146 C 103.200 393.489,106.097 394.970,106.994 394.073 C 107.254 393.813,106.885 393.600,106.173 393.600 C 105.462 393.600,104.513 392.970,104.064 392.200 C 103.320 390.923,103.247 390.918,103.224 392.146 M125.002 397.200 C 125.011 398.960,125.174 399.586,125.366 398.591 C 125.557 397.596,125.550 396.156,125.350 395.391 C 125.149 394.626,124.993 395.440,125.002 397.200 " stroke="none" fill="#000000" fill-rule="evenodd"></path><path id="path1" d="M136.000 2.711 L 136.000 5.422 121.800 5.783 C 104.445 6.225,103.200 6.775,103.200 14.015 C 103.200 15.837,100.478 16.769,95.086 16.791 C 92.737 16.801,92.000 18.031,92.000 21.941 C 92.000 26.065,90.065 27.200,83.037 27.200 C 72.272 27.200,70.400 28.401,70.400 35.304 C 70.400 37.767,69.518 38.192,63.600 38.587 L 60.400 38.800 60.162 43.800 L 59.924 48.800 55.619 48.800 C 50.020 48.800,48.800 50.005,48.800 55.534 L 48.800 59.753 44.285 59.901 C 38.512 60.089,38.402 60.177,38.388 64.647 C 38.372 69.453,37.887 70.117,33.999 70.654 C 27.657 71.532,27.200 72.544,27.200 85.712 L 27.200 92.000 22.898 92.000 C 17.674 92.000,17.140 92.577,16.411 99.000 C 15.895 103.545,15.673 104.000,13.974 104.000 C 7.534 104.000,6.323 106.814,5.800 123.000 L 5.405 135.200 2.703 135.200 L 0.000 135.200 0.000 200.000 L 0.000 264.800 2.800 264.800 L 5.600 264.800 5.658 275.000 C 5.762 293.047,6.525 295.340,12.778 296.396 C 15.958 296.934,16.765 298.646,16.791 304.914 C 16.802 307.431,17.996 308.000,23.265 308.000 L 27.200 308.000 27.200 315.500 C 27.200 327.867,28.194 329.600,35.283 329.600 C 37.633 329.600,37.993 330.427,38.589 337.200 C 38.796 339.559,38.885 339.604,43.800 339.838 L 48.800 340.076 48.800 344.678 C 48.800 350.425,49.579 351.200,55.360 351.200 L 60.000 351.200 60.000 356.400 L 60.000 361.600 63.400 361.611 C 69.341 361.630,70.398 362.216,70.412 365.493 C 70.433 370.630,71.872 372.339,76.417 372.624 C 81.680 372.954,82.400 373.256,82.400 375.137 C 82.400 379.419,86.642 383.151,90.394 382.170 C 91.278 381.939,92.000 382.040,92.000 382.394 C 92.000 382.748,94.520 383.291,97.600 383.600 L 103.200 384.162 103.211 386.681 C 103.240 393.379,105.149 394.388,117.800 394.396 L 125.600 394.400 125.600 397.200 L 125.600 400.000 200.400 400.000 L 275.200 400.000 275.200 397.267 L 275.200 394.534 284.866 394.267 C 295.917 393.962,296.800 393.463,296.800 387.519 L 296.800 384.144 303.800 383.641 C 317.008 382.692,317.522 382.434,318.202 376.400 L 318.608 372.800 322.504 372.700 C 324.647 372.645,326.814 372.555,327.319 372.500 C 328.611 372.360,329.478 369.774,329.544 365.870 L 329.600 362.540 334.600 361.870 L 339.600 361.200 339.813 358.000 C 340.255 351.369,340.385 351.200,345.055 351.200 C 350.333 351.200,351.200 350.336,351.200 345.076 C 351.200 340.474,351.190 340.481,358.800 339.811 C 361.096 339.609,361.230 339.387,361.899 334.691 L 362.598 329.782 366.898 329.425 C 372.236 328.982,372.226 328.993,372.644 323.220 L 372.987 318.475 377.224 317.595 C 382.092 316.584,382.620 315.388,383.665 303.000 L 384.188 296.800 387.541 296.800 C 393.453 296.800,393.957 295.907,394.283 284.865 L 394.569 275.200 397.284 275.200 L 400.000 275.200 400.000 200.400 L 400.000 125.600 397.200 125.600 L 394.400 125.600 394.396 117.800 C 394.388 105.111,393.388 103.239,386.600 103.211 C 384.147 103.201,383.995 103.030,383.909 100.200 C 383.753 95.067,383.296 92.432,382.518 92.173 C 382.107 92.036,381.954 91.218,382.180 90.356 C 383.164 86.592,379.944 83.050,374.800 82.237 C 373.476 82.028,373.130 81.199,372.793 77.425 C 372.296 71.854,371.583 71.079,366.504 70.591 L 362.514 70.207 361.857 65.304 L 361.200 60.400 358.000 60.187 C 351.355 59.744,351.200 59.623,351.200 54.883 C 351.200 49.681,350.468 48.970,344.776 48.648 L 340.400 48.400 340.000 43.607 C 339.712 40.159,339.263 38.770,338.400 38.658 C 337.740 38.572,335.534 38.283,333.498 38.017 L 329.797 37.532 329.411 33.519 C 328.921 28.416,328.150 27.704,322.577 27.207 C 318.073 26.805,318.016 26.767,317.561 23.950 C 317.059 20.845,315.387 18.119,313.785 17.795 C 313.227 17.682,309.177 17.182,304.785 16.682 L 296.800 15.774 296.789 13.287 C 296.760 6.625,294.836 5.612,282.200 5.604 L 274.400 5.600 274.400 2.800 L 274.400 0.000 205.200 0.000 L 136.000 0.000 136.000 2.711 M202.626 12.290 C 204.841 13.227,208.861 16.693,207.924 16.857 C 207.746 16.888,204.000 17.415,199.600 18.029 C 182.587 20.401,182.977 20.153,181.667 29.390 C 180.109 40.379,180.304 39.927,176.391 41.604 C 173.309 42.925,172.510 43.806,170.438 48.165 C 168.842 51.523,167.232 53.657,165.606 54.572 C 162.906 56.091,160.306 61.246,159.504 66.671 C 158.713 72.017,157.318 73.598,153.382 73.612 C 147.783 73.633,147.682 73.840,148.237 84.190 C 148.592 90.807,148.420 94.493,147.614 97.549 C 146.900 100.253,146.432 107.068,146.309 116.524 C 146.204 124.640,145.835 131.455,145.490 131.668 C 145.144 131.882,145.140 132.854,145.481 133.828 C 145.822 134.803,146.202 139.740,146.326 144.800 C 146.590 155.581,146.821 156.000,152.498 156.000 C 156.040 156.000,156.810 156.247,156.857 157.400 C 157.470 172.486,158.436 174.937,164.062 175.684 C 168.269 176.242,169.264 177.473,168.374 181.019 L 167.883 182.974 163.342 181.109 C 159.077 179.358,158.115 179.275,147.566 179.739 C 134.807 180.300,133.257 179.889,132.477 175.732 C 131.573 170.912,129.184 169.716,120.000 169.484 C 113.444 169.318,109.600 167.941,109.600 165.757 C 109.600 163.391,107.249 160.800,105.102 160.800 C 103.998 160.800,102.417 160.437,101.589 159.994 C 100.762 159.551,98.194 158.705,95.884 158.114 C 91.956 157.109,91.604 156.811,90.442 153.520 C 86.911 143.515,85.460 142.349,72.548 139.141 C 67.424 137.868,66.174 135.895,66.527 129.637 C 66.823 124.405,66.519 124.000,62.291 124.000 C 59.589 124.000,56.774 118.901,55.068 110.919 C 54.429 107.929,53.426 106.080,51.407 104.172 L 48.627 101.544 46.356 103.920 C 41.519 108.982,40.506 112.257,40.451 123.027 C 40.394 133.975,40.575 134.366,45.707 134.388 C 48.857 134.401,49.567 135.507,49.589 140.440 C 49.603 143.531,50.869 144.797,53.960 144.811 C 58.124 144.830,59.832 145.662,60.876 148.182 C 62.249 151.497,65.320 155.014,68.095 156.449 C 69.363 157.105,70.400 158.144,70.400 158.759 C 70.400 161.048,74.539 164.792,78.267 165.876 L 82.000 166.961 82.243 172.060 C 82.514 177.753,83.030 178.370,87.533 178.388 C 91.282 178.402,91.101 178.942,87.200 179.382 C 84.409 179.697,84.398 179.714,83.600 185.016 C 83.160 187.940,82.440 190.673,82.000 191.087 C 80.710 192.304,69.862 192.648,64.033 191.658 C 59.754 190.931,58.461 190.954,57.697 191.772 C 57.169 192.338,56.952 192.800,57.214 192.800 C 57.476 192.800,57.130 193.600,56.445 194.578 C 55.172 196.395,54.921 201.219,55.913 204.800 C 57.624 210.974,87.048 209.662,90.481 203.259 C 91.289 201.751,93.771 198.925,95.996 196.978 C 98.221 195.032,100.566 192.426,101.206 191.188 C 102.279 189.113,102.792 188.915,107.785 188.639 C 114.876 188.247,115.200 188.397,115.200 192.086 C 115.200 197.753,116.788 198.489,128.632 198.309 C 141.998 198.105,145.229 198.973,145.979 202.972 C 147.123 209.068,150.364 210.056,165.200 208.830 C 192.130 206.604,191.210 206.445,193.540 213.729 C 194.273 216.019,195.157 216.929,197.598 217.906 C 201.282 219.380,202.400 221.146,202.400 225.490 C 202.400 229.223,204.005 231.195,207.057 231.212 C 210.954 231.235,213.599 238.200,213.600 248.441 C 213.600 253.868,216.360 257.600,220.373 257.600 C 221.523 257.600,223.238 263.808,222.761 266.247 C 221.558 272.399,221.967 272.000,216.870 272.000 C 211.776 272.000,211.200 271.506,211.200 267.137 C 211.200 264.506,206.922 261.899,205.035 263.380 C 204.504 263.797,203.701 263.910,203.251 263.631 C 202.800 263.353,202.940 264.132,203.562 265.362 C 204.185 266.593,205.258 269.220,205.948 271.200 C 208.168 277.570,211.985 280.739,217.128 280.481 C 222.221 280.225,222.400 280.588,222.400 291.200 L 222.400 297.400 219.900 297.900 C 218.525 298.175,216.386 298.400,215.147 298.400 C 212.162 298.400,212.124 298.504,211.944 307.243 C 211.685 319.799,211.617 320.000,207.607 320.000 C 203.436 320.000,202.334 321.176,201.797 326.200 C 201.287 330.966,200.710 331.682,196.889 332.293 C 193.302 332.867,192.399 333.772,191.600 337.600 C 190.795 341.455,190.062 342.148,186.174 342.736 C 181.452 343.451,180.741 344.089,180.219 348.085 C 179.639 352.530,179.226 352.773,172.228 352.788 C 165.717 352.802,165.333 353.118,164.570 359.110 C 164.212 361.923,163.362 363.393,160.291 366.510 L 156.460 370.400 150.830 370.355 C 141.967 370.284,139.907 369.252,138.360 364.107 C 136.788 358.881,136.502 358.713,128.014 358.044 C 119.042 357.336,117.624 356.563,116.197 351.600 C 114.586 345.998,114.327 345.819,108.066 345.960 C 100.502 346.130,99.525 345.655,98.973 341.537 C 98.396 337.232,96.132 334.174,93.057 333.546 C 89.588 332.836,88.876 332.222,87.482 328.739 C 86.441 326.137,85.677 325.457,82.916 324.676 C 78.836 323.522,77.723 322.540,75.637 318.252 C 74.249 315.398,73.391 314.687,70.000 313.579 C 66.186 312.333,65.955 312.092,65.024 308.383 C 63.648 302.897,55.571 297.508,54.099 301.093 C 53.894 301.592,53.698 300.769,53.663 299.266 C 53.399 287.842,50.796 283.414,44.814 284.217 C 41.510 284.660,38.909 283.169,40.871 281.956 C 42.002 281.257,41.307 265.642,40.039 263.273 C 36.793 257.208,34.138 261.524,34.063 272.987 L 34.000 282.680 31.600 283.350 C 25.173 285.146,22.743 281.204,23.452 270.132 C 23.938 262.541,25.328 259.200,27.998 259.200 C 30.294 259.200,32.272 254.900,31.607 251.353 C 30.900 247.589,31.021 234.532,31.773 233.338 C 32.509 232.170,32.621 224.816,31.896 225.264 C 31.606 225.444,31.131 224.973,30.841 224.218 C 30.389 223.041,30.208 223.013,29.569 224.022 C 29.160 224.670,28.819 224.810,28.812 224.333 C 28.795 223.095,26.548 223.259,26.059 224.535 C 25.833 225.123,24.904 231.093,23.994 237.802 C 21.528 255.985,21.239 256.800,17.267 256.800 C 10.664 256.800,10.900 223.136,17.562 214.667 C 18.440 213.551,19.395 211.324,19.684 209.719 C 20.486 205.272,21.302 204.229,24.584 203.455 C 31.872 201.736,32.213 181.458,24.931 182.780 C 20.726 183.544,19.199 185.470,17.904 191.652 C 17.275 194.652,16.621 197.246,16.451 197.416 C 15.793 198.074,15.020 186.837,15.465 183.083 C 15.722 180.908,15.562 178.154,15.109 176.964 C 12.229 169.402,11.631 146.081,14.262 143.951 C 19.352 139.830,22.050 143.328,22.628 154.800 C 23.392 169.951,25.318 174.610,29.208 170.720 C 31.260 168.668,31.339 168.292,30.886 162.803 C 30.415 157.100,31.483 148.407,32.860 146.734 C 33.971 145.385,31.941 143.264,28.389 142.063 C 24.191 140.643,23.338 138.686,23.130 129.998 C 22.923 121.321,23.768 118.959,27.821 116.891 C 32.141 114.687,32.731 113.723,33.312 107.918 C 34.007 100.963,35.186 98.897,39.134 97.714 C 42.828 96.607,43.347 95.827,44.764 89.237 C 45.619 85.258,46.404 83.876,49.531 80.837 C 51.590 78.837,53.731 75.940,54.289 74.400 C 56.350 68.712,57.208 67.649,60.726 66.419 C 63.745 65.363,64.492 64.611,66.306 60.800 C 68.286 56.640,68.653 56.320,73.033 54.934 C 76.765 53.752,78.065 52.863,79.723 50.357 C 81.786 47.241,88.086 44.000,92.083 44.000 C 94.914 44.000,96.597 42.531,97.152 39.577 C 98.575 31.988,115.200 30.940,115.200 38.439 C 115.200 43.791,114.132 44.800,108.472 44.800 C 100.204 44.800,97.500 46.706,98.743 51.658 C 99.384 54.212,102.071 54.192,108.400 51.585 C 111.976 50.112,114.668 49.606,118.956 49.604 L 124.712 49.600 128.069 46.018 C 129.916 44.048,132.186 42.201,133.113 41.913 C 136.290 40.928,139.096 38.378,139.349 36.244 C 139.522 34.784,140.223 33.943,141.600 33.544 C 142.700 33.226,146.227 32.157,149.438 31.170 C 154.196 29.707,156.407 29.460,161.386 29.837 C 169.966 30.486,174.544 27.350,170.439 23.635 C 169.128 22.449,167.159 22.200,158.169 22.088 C 144.288 21.915,139.352 18.930,144.797 14.003 C 147.887 11.207,172.330 13.287,176.247 16.680 C 177.402 17.680,177.967 17.739,179.047 16.973 C 186.780 11.490,196.278 9.603,202.626 12.290 M255.890 14.701 C 259.331 17.814,254.516 21.933,244.494 24.448 C 243.410 24.720,239.757 24.370,236.376 23.671 C 232.995 22.972,228.624 22.400,226.662 22.400 C 224.700 22.400,222.436 22.048,221.632 21.617 C 220.173 20.836,217.980 16.042,219.042 15.954 C 219.349 15.929,222.120 15.210,225.200 14.358 C 233.072 12.179,253.354 12.405,255.890 14.701 M135.449 25.289 C 142.677 28.736,136.666 33.600,125.179 33.600 C 118.856 33.600,117.934 33.070,117.113 28.967 C 116.036 23.580,127.178 21.345,135.449 25.289 M282.400 25.405 C 289.249 28.834,284.314 33.095,273.423 33.155 L 265.200 33.200 264.962 29.963 C 264.563 24.538,275.145 21.772,282.400 25.405 M218.800 28.579 C 224.562 30.674,230.923 31.397,235.026 30.421 C 243.193 28.479,244.189 28.531,247.726 31.093 C 249.655 32.491,251.644 34.869,252.493 36.793 C 253.714 39.560,254.213 39.999,255.575 39.500 C 264.129 36.370,284.775 41.446,284.812 46.689 C 284.836 49.946,285.964 50.588,292.210 50.902 C 296.837 51.134,298.429 50.929,299.199 50.001 C 300.290 48.686,299.090 46.404,297.302 46.396 C 290.322 46.361,284.803 39.197,288.731 35.269 C 292.482 31.518,300.894 33.516,303.650 38.814 C 305.120 41.639,306.003 42.247,311.756 44.392 C 318.569 46.933,320.800 48.326,320.800 50.040 C 320.800 51.717,324.784 54.379,328.084 54.906 C 331.643 55.475,333.181 56.947,334.651 61.193 C 335.516 63.691,336.319 64.488,338.858 65.367 C 342.931 66.777,343.976 67.898,345.523 72.514 C 346.551 75.581,347.482 76.722,350.297 78.362 C 353.335 80.132,358.400 90.023,358.400 94.183 C 358.400 94.285,359.855 95.110,361.632 96.016 C 365.347 97.911,366.128 99.491,366.568 105.996 C 366.913 111.092,367.377 111.624,372.147 112.383 C 376.147 113.020,378.026 122.301,376.884 135.791 C 376.838 136.335,375.367 137.010,373.615 137.290 C 368.868 138.049,368.375 139.104,368.567 148.089 C 369.002 168.541,376.453 168.156,378.034 147.600 C 378.741 138.410,378.808 138.268,382.268 138.556 C 387.163 138.964,388.052 141.841,387.519 155.560 C 387.003 168.855,385.959 172.176,381.598 174.401 C 377.225 176.632,376.941 177.299,377.680 183.600 C 378.041 186.680,378.298 195.514,378.250 203.230 C 378.152 219.148,378.827 222.552,382.453 224.427 C 386.622 226.583,387.200 228.917,387.200 243.600 C 387.200 258.869,386.477 261.600,382.437 261.600 C 377.898 261.600,377.508 260.564,376.125 244.800 C 374.320 224.217,371.648 228.182,369.927 254.000 C 369.288 263.580,369.021 264.000,363.567 264.000 C 357.103 264.000,357.187 263.896,357.299 271.793 C 357.454 282.770,355.340 286.081,348.000 286.351 C 346.900 286.391,346.378 286.689,346.840 287.012 C 347.302 287.336,347.768 290.300,347.877 293.600 C 348.142 301.673,348.463 302.548,351.050 302.247 C 353.728 301.934,355.173 299.159,355.188 294.298 C 355.203 289.731,356.198 288.829,361.871 288.244 L 366.252 287.791 366.160 278.496 C 366.058 268.167,366.659 266.224,370.357 264.935 C 375.243 263.231,376.417 265.511,376.297 276.471 C 376.179 287.246,375.757 288.000,369.847 288.000 L 366.400 288.000 366.399 293.400 C 366.397 300.353,364.655 304.067,360.899 305.127 C 357.825 305.995,356.180 308.965,355.099 315.600 C 354.418 319.776,352.284 322.400,349.569 322.400 C 347.511 322.400,345.600 324.566,345.600 326.897 C 345.600 330.384,343.449 333.395,340.214 334.438 C 336.128 335.754,335.326 336.515,334.742 339.628 C 334.078 343.167,332.282 344.646,327.582 345.524 C 323.677 346.254,321.600 347.957,321.600 350.429 C 321.600 352.365,319.225 354.121,315.768 354.741 C 309.944 355.785,305.609 358.161,305.115 360.578 C 303.787 367.078,288.533 368.989,288.533 362.656 C 288.533 356.674,290.555 354.400,295.874 354.400 C 298.664 354.400,301.600 352.340,301.600 350.383 C 301.600 348.595,303.849 347.200,306.731 347.200 C 310.779 347.200,315.032 344.717,319.209 339.915 C 321.555 337.218,325.016 334.307,327.181 333.210 C 330.143 331.708,331.573 330.269,333.510 326.835 C 334.942 324.298,337.466 321.357,339.407 319.962 C 347.041 314.476,349.565 305.573,343.961 303.894 C 339.951 302.693,338.056 304.193,336.080 310.132 C 335.046 313.241,334.339 314.114,332.400 314.676 C 327.650 316.052,325.015 317.769,323.917 320.202 C 322.767 322.753,322.397 323.042,317.535 325.189 C 315.734 325.984,314.187 327.469,313.367 329.188 C 311.930 332.201,309.385 334.199,306.403 334.654 C 303.721 335.063,301.643 338.147,301.298 342.230 C 301.138 344.116,300.805 345.862,300.558 346.109 C 299.833 346.833,289.600 346.883,289.600 346.162 C 289.600 345.801,289.330 345.662,289.000 345.853 C 288.670 346.044,287.680 345.934,286.800 345.609 C 285.428 345.103,285.029 345.544,284.000 348.709 C 282.911 352.059,282.452 352.516,279.026 353.653 C 267.767 357.390,268.311 365.268,279.908 366.437 C 287.671 367.220,288.003 367.393,287.988 370.647 C 287.966 375.181,287.246 375.573,278.396 375.876 L 270.332 376.152 267.589 373.244 C 262.644 368.000,259.976 370.721,259.006 381.998 C 258.731 385.202,255.146 386.854,245.883 388.046 C 241.987 388.548,236.640 389.253,234.000 389.614 C 231.360 389.975,223.620 390.104,216.800 389.901 C 197.457 389.325,194.692 389.296,183.600 389.558 C 174.171 389.780,164.530 389.177,163.009 388.270 C 162.684 388.076,158.315 387.642,153.299 387.305 C 141.821 386.535,138.950 384.250,143.069 379.164 C 144.796 377.030,153.898 376.803,158.618 378.776 C 167.984 382.689,210.548 382.889,232.800 379.124 C 235.754 378.624,240.937 376.809,244.800 374.922 L 251.600 371.600 252.249 367.600 C 253.349 360.818,253.848 359.779,256.400 358.961 C 261.748 357.246,264.000 353.190,264.000 345.273 C 264.000 339.351,264.284 339.036,269.588 339.077 C 275.549 339.123,275.320 340.382,275.230 307.972 C 275.128 271.406,274.612 268.800,267.476 268.800 C 264.382 268.800,264.290 268.570,263.202 258.044 C 262.226 248.598,261.171 246.606,256.775 245.903 C 253.185 245.329,253.550 246.167,251.591 234.019 C 250.883 229.629,250.235 225.987,250.152 225.927 C 248.862 224.991,246.151 224.000,244.881 224.000 C 242.900 224.000,241.958 222.306,241.369 217.685 C 240.848 213.597,239.948 212.829,235.663 212.812 C 231.772 212.797,229.600 210.955,229.600 207.671 C 229.600 206.306,229.267 204.027,228.859 202.606 C 227.816 198.971,228.376 198.800,241.331 198.800 C 253.719 198.800,255.839 197.979,256.100 193.078 C 256.329 188.769,255.976 189.008,264.834 187.193 C 273.358 185.447,273.578 185.299,274.162 180.944 C 274.707 176.884,274.937 176.800,286.764 176.388 C 298.388 175.983,301.600 176.910,301.600 180.673 C 301.600 186.030,306.543 187.646,324.400 188.126 C 334.219 188.389,334.930 188.069,335.617 183.077 C 336.406 177.340,334.866 175.575,325.932 171.979 C 318.897 169.148,318.789 169.062,317.968 165.706 C 316.986 161.688,315.879 160.829,311.663 160.812 C 304.839 160.786,303.378 152.533,309.907 150.895 C 311.726 150.438,316.770 140.972,317.921 135.853 C 318.209 134.574,319.130 133.486,320.202 133.161 C 323.133 132.273,325.540 129.540,326.095 126.472 C 326.911 121.954,328.689 119.165,331.501 117.990 C 334.843 116.593,336.000 113.938,336.000 107.660 C 336.000 102.011,336.698 100.969,340.929 100.300 C 346.314 99.450,347.506 100.628,348.400 107.687 L 349.200 114.000 353.361 114.800 C 359.169 115.917,359.373 116.283,359.920 126.560 L 360.400 135.600 363.138 135.600 L 365.876 135.600 365.676 125.632 C 365.445 114.083,365.122 113.184,360.964 112.519 C 357.118 111.904,355.585 110.255,354.371 105.424 C 353.357 101.388,352.534 100.344,350.000 99.877 C 348.617 99.622,348.331 98.737,347.892 93.341 C 347.291 85.941,345.579 83.471,340.490 82.658 C 336.662 82.046,334.452 79.863,331.910 74.181 C 330.170 70.293,329.593 69.776,323.666 66.800 C 317.398 63.652,317.278 63.535,316.333 59.652 C 314.943 53.939,309.503 51.097,304.903 53.682 C 299.634 56.643,303.323 64.739,310.597 66.178 C 313.288 66.710,314.188 67.392,315.654 70.011 C 317.021 72.452,318.119 73.357,320.358 73.887 C 323.384 74.602,325.358 76.751,325.830 79.841 C 325.980 80.824,327.430 82.987,329.051 84.648 C 333.501 89.204,332.270 98.400,327.210 98.400 C 326.905 98.400,325.636 100.290,324.391 102.600 C 323.146 104.910,319.874 108.960,317.120 111.600 C 312.758 115.781,312.042 116.887,311.569 120.174 C 310.893 124.875,310.389 125.262,304.132 125.885 C 297.587 126.537,297.600 126.525,297.600 131.689 C 297.600 135.805,297.455 136.134,295.310 136.881 C 292.777 137.764,291.200 140.475,291.200 143.946 C 291.200 146.767,288.934 148.366,283.865 149.122 C 279.617 149.755,278.820 150.472,278.000 154.400 C 277.014 159.119,276.510 159.360,268.861 158.763 C 260.944 158.145,259.784 158.803,258.926 164.397 C 258.197 169.156,256.822 169.813,248.520 169.370 C 238.457 168.833,236.800 169.778,236.800 176.057 C 236.800 179.114,235.418 179.627,225.491 180.257 C 221.251 180.525,216.211 181.289,214.291 181.954 C 205.753 184.911,198.588 182.408,197.213 175.988 C 196.397 172.180,195.618 171.411,191.944 170.790 C 187.838 170.097,187.075 168.531,187.365 161.388 C 187.605 155.469,185.847 152.004,182.600 152.001 C 182.050 152.000,181.600 151.580,181.600 151.067 C 181.600 150.553,181.377 150.356,181.105 150.629 C 179.669 152.064,178.399 148.532,178.382 143.057 C 178.357 134.441,176.138 130.364,168.865 125.568 L 166.996 124.335 168.601 121.168 C 169.483 119.425,170.439 116.920,170.724 115.600 C 171.749 110.867,175.704 109.600,189.461 109.600 C 202.328 109.600,202.615 109.511,203.641 105.196 C 204.474 101.690,207.086 99.237,210.581 98.678 C 214.428 98.063,217.311 95.840,218.760 92.373 C 219.493 90.619,220.998 89.123,223.123 88.039 C 226.366 86.385,228.098 83.988,229.116 79.747 C 229.488 78.199,230.499 77.143,232.349 76.370 C 238.050 73.988,239.600 68.328,235.636 64.364 C 232.420 61.147,229.673 62.779,227.906 68.954 C 226.590 73.551,226.054 74.138,222.571 74.784 C 219.028 75.442,217.143 76.995,215.149 80.901 C 213.464 84.203,212.652 84.633,206.922 85.263 C 199.359 86.094,194.400 88.327,194.400 90.903 C 194.400 93.765,188.401 94.984,181.552 93.515 L 177.425 92.630 177.915 86.115 C 178.185 82.532,178.466 77.537,178.539 75.015 C 178.655 71.021,178.829 70.557,179.890 71.415 C 180.857 72.198,180.984 72.195,180.506 71.400 C 180.090 70.707,180.518 70.400,181.901 70.400 C 186.748 70.400,188.000 69.186,188.000 64.485 C 188.000 58.576,188.490 57.605,191.486 57.575 C 195.044 57.539,196.707 55.956,197.469 51.879 C 198.309 47.382,199.252 45.720,201.641 44.530 C 202.692 44.006,203.974 42.682,204.491 41.588 C 209.077 31.875,210.400 28.763,210.400 27.688 C 210.400 26.265,213.275 26.570,218.800 28.579 M88.257 54.532 C 86.583 55.360,85.163 57.939,84.645 61.091 C 84.487 62.051,82.974 63.118,80.400 64.085 C 74.316 66.371,64.379 76.160,63.468 80.766 C 62.821 84.040,62.567 84.300,59.009 85.338 C 54.548 86.638,53.251 88.571,53.849 93.025 C 54.940 101.158,63.180 100.337,63.211 92.092 C 63.231 86.682,63.878 85.600,67.093 85.597 C 70.977 85.593,74.896 83.076,76.319 79.672 C 77.079 77.852,78.549 76.348,80.582 75.311 C 83.807 73.666,85.600 70.907,85.600 67.591 C 85.600 65.297,87.132 64.379,91.992 63.759 C 96.505 63.183,98.578 60.894,98.240 56.862 C 97.977 53.727,92.481 52.444,88.257 54.532 M134.582 70.354 C 134.754 71.245,136.019 71.670,139.084 71.865 C 144.652 72.220,147.287 71.558,146.674 69.959 C 145.978 68.147,134.231 68.530,134.582 70.354 M295.697 109.909 C 294.084 113.307,294.126 115.237,295.931 120.764 L 297.355 125.128 299.078 119.797 C 301.249 113.077,301.232 112.104,298.896 109.388 L 296.994 107.176 295.697 109.909 M90.530 127.000 C 88.991 134.053,88.970 135.233,90.353 136.941 C 91.809 138.739,94.186 138.499,96.349 136.337 C 97.692 134.994,96.164 128.437,93.725 125.076 C 91.846 122.487,91.465 122.717,90.530 127.000 M138.998 123.669 C 138.669 123.998,138.406 124.657,138.412 125.133 C 138.420 125.666,138.663 125.624,139.044 125.025 C 139.465 124.362,140.112 124.884,141.065 126.654 C 141.836 128.086,143.261 129.753,144.230 130.358 C 145.628 131.231,145.497 130.878,143.597 128.653 C 142.278 127.110,140.839 125.222,140.398 124.459 C 139.957 123.695,139.327 123.340,138.998 123.669 M169.691 151.800 C 171.026 155.246,170.846 158.800,169.212 161.294 L 167.712 163.584 166.692 161.192 C 165.415 158.198,165.349 155.360,166.478 152.119 C 167.559 149.018,168.575 148.917,169.691 151.800 M179.321 173.381 C 179.688 180.987,178.268 181.019,177.113 173.430 C 176.468 169.190,176.466 167.445,177.106 167.033 C 178.585 166.081,179.030 167.358,179.321 173.381 M191.043 187.412 C 192.894 190.463,190.836 192.820,187.607 191.349 C 184.638 189.996,184.171 188.044,186.388 186.249 C 188.637 184.428,189.339 184.603,191.043 187.412 M211.316 199.672 C 212.442 200.368,213.031 211.958,212.004 213.195 C 210.568 214.925,209.775 214.050,208.356 209.166 C 207.107 204.871,204.923 202.400,202.375 202.400 C 200.365 202.400,198.073 200.377,198.783 199.228 C 199.366 198.285,209.661 198.649,211.316 199.672 M223.893 220.495 C 225.519 221.634,225.709 222.331,225.471 226.295 L 225.200 230.800 229.200 231.200 C 231.719 231.452,233.170 231.970,233.120 232.600 C 233.076 233.150,232.986 234.309,232.920 235.176 C 232.806 236.679,232.666 236.661,229.888 234.776 C 228.287 233.689,226.487 232.800,225.888 232.800 C 225.290 232.800,224.800 232.440,224.800 232.000 C 224.800 231.560,224.080 231.200,223.200 231.200 C 222.320 231.200,221.600 230.721,221.600 230.136 C 221.600 229.550,220.717 227.327,219.638 225.196 C 217.022 220.028,219.429 217.368,223.893 220.495 M303.808 263.922 C 303.156 268.624,300.583 271.033,294.295 272.830 C 291.493 273.631,289.920 274.328,290.800 274.379 C 292.095 274.454,291.942 274.697,290.000 275.648 C 288.680 276.295,288.263 276.637,289.074 276.409 C 294.672 274.831,294.536 274.797,294.258 277.699 C 294.015 280.244,293.792 280.428,290.400 280.880 C 288.420 281.144,287.561 281.414,288.492 281.480 C 289.423 281.546,291.155 282.364,292.342 283.297 L 294.499 284.994 294.953 283.258 C 295.530 281.051,297.650 281.393,298.898 283.896 C 299.941 285.989,300.083 285.757,301.231 280.078 C 301.533 278.581,302.657 276.544,303.729 275.551 C 304.859 274.503,305.786 272.623,305.938 271.073 C 306.081 269.603,306.031 269.120,305.826 270.000 C 305.350 272.046,303.256 274.400,301.912 274.400 C 301.319 274.400,301.740 273.533,302.895 272.378 C 304.534 270.739,304.821 269.867,304.410 267.778 C 304.032 265.857,304.116 265.506,304.739 266.400 C 305.746 267.845,305.815 265.707,304.868 262.400 C 304.368 260.654,304.234 260.847,303.808 263.922 M205.916 264.136 C 205.531 264.759,205.768 264.907,206.628 264.577 C 207.506 264.240,207.785 264.429,207.501 265.169 C 207.272 265.766,207.680 267.408,208.408 268.816 C 209.136 270.224,209.337 271.132,208.855 270.834 C 207.592 270.053,204.775 264.291,205.368 263.699 C 206.197 262.870,206.533 263.138,205.916 264.136 M135.400 265.376 C 134.264 265.782,134.023 268.000,135.114 268.000 C 135.788 268.000,137.089 265.573,136.619 265.195 C 136.498 265.098,135.950 265.180,135.400 265.376 M296.400 268.800 C 297.790 269.397,297.684 269.504,295.600 269.613 L 293.200 269.738 295.531 270.435 C 296.814 270.818,298.181 270.935,298.570 270.695 C 299.588 270.066,297.646 267.990,296.102 268.056 C 295.100 268.099,295.169 268.271,296.400 268.800 M254.151 276.600 C 253.950 277.370,253.786 276.740,253.786 275.200 C 253.786 273.660,253.950 273.030,254.151 273.800 C 254.353 274.570,254.353 275.830,254.151 276.600 M146.617 285.523 C 146.557 291.774,146.821 295.200,147.360 295.200 C 147.864 295.200,147.794 295.684,147.184 296.419 C 146.627 297.090,146.403 297.870,146.686 298.153 C 146.969 298.435,147.213 298.157,147.228 297.533 C 147.244 296.910,147.799 297.300,148.462 298.400 L 149.667 300.400 149.195 298.400 C 148.759 296.551,148.795 296.521,149.674 298.000 C 150.196 298.880,151.204 300.320,151.912 301.200 C 153.189 302.786,153.184 302.787,151.400 301.276 C 150.361 300.396,149.600 300.148,149.600 300.688 C 149.600 301.202,150.770 302.337,152.200 303.209 C 153.630 304.081,154.326 304.795,153.747 304.797 C 151.869 304.802,149.657 303.209,148.447 300.980 C 147.796 299.781,147.250 299.278,147.232 299.862 C 147.170 301.906,151.908 305.812,153.825 305.298 C 154.801 305.036,156.251 304.817,157.047 304.811 C 157.843 304.805,158.274 304.444,158.006 304.009 C 157.715 303.539,158.074 303.432,158.890 303.745 C 159.740 304.071,160.067 303.956,159.750 303.443 C 159.468 302.987,160.039 301.936,161.019 301.107 L 162.800 299.600 161.276 301.400 C 160.438 302.390,160.160 303.200,160.658 303.200 C 162.027 303.200,164.242 299.385,163.697 297.965 C 163.434 297.278,163.545 296.919,163.945 297.166 C 164.344 297.413,165.195 297.091,165.836 296.450 C 167.287 294.998,167.786 280.800,166.385 280.800 C 165.901 280.800,165.733 280.432,166.011 279.983 C 166.307 279.503,165.584 279.152,164.258 279.131 C 163.016 279.112,159.045 279.061,155.434 279.017 C 150.960 278.963,149.025 278.661,149.362 278.069 C 149.634 277.591,149.564 277.464,149.207 277.788 C 148.850 278.111,148.142 277.806,147.634 277.111 C 146.914 276.126,146.688 277.989,146.617 285.523 M42.235 286.942 C 43.244 288.523,44.560 292.155,45.160 295.014 C 46.346 300.675,47.280 301.761,50.545 301.276 C 53.103 300.896,53.600 301.852,53.600 307.158 C 53.600 311.729,55.662 314.823,59.233 315.607 C 61.154 316.029,62.118 317.062,63.956 320.669 C 66.450 325.562,71.333 330.650,78.561 335.887 C 81.131 337.750,83.694 340.399,84.434 341.958 C 85.799 344.835,89.745 346.903,94.772 347.377 C 96.768 347.565,97.232 348.036,97.703 350.361 C 98.318 353.390,100.203 355.198,102.753 355.204 C 108.782 355.221,114.297 359.701,113.083 363.597 C 111.405 368.987,96.800 366.785,96.800 361.142 C 96.800 357.993,94.398 356.397,87.956 355.266 C 82.251 354.264,79.230 352.755,79.173 350.876 C 79.113 348.898,75.819 346.232,71.859 344.957 C 67.916 343.687,67.549 343.343,66.167 339.613 C 64.591 335.361,63.944 334.671,60.800 333.888 C 57.914 333.169,55.200 330.423,55.200 328.221 C 55.200 325.145,53.070 321.911,50.124 320.512 C 47.208 319.129,45.406 315.817,44.373 309.940 C 43.591 305.498,41.945 303.200,39.545 303.200 C 34.178 303.200,31.786 294.146,35.055 286.200 C 36.431 282.857,39.853 283.211,42.235 286.942 M153.600 297.200 C 153.600 296.949,154.327 297.133,155.217 297.609 C 156.106 298.085,157.276 298.197,157.817 297.859 C 160.146 296.404,160.938 297.025,159.098 298.865 C 156.494 301.470,154.078 301.854,152.346 299.941 C 151.579 299.093,151.232 298.400,151.574 298.400 C 151.916 298.400,151.702 297.801,151.098 297.069 C 150.102 295.862,150.168 295.827,151.800 296.697 C 152.790 297.225,153.600 297.451,153.600 297.200 M157.966 298.455 C 157.676 298.925,156.995 299.139,156.452 298.931 C 155.910 298.723,155.467 299.039,155.467 299.633 C 155.467 300.421,155.852 300.507,156.889 299.952 C 158.300 299.197,159.662 297.600,158.894 297.600 C 158.674 297.600,158.257 297.985,157.966 298.455 M164.863 298.680 C 164.828 299.494,163.576 301.384,162.080 302.880 C 159.213 305.747,159.127 306.124,161.644 304.776 C 163.474 303.797,165.858 299.487,165.312 298.146 C 165.100 297.626,164.898 297.866,164.863 298.680 M301.256 299.909 C 300.750 300.728,302.830 302.652,304.485 302.895 C 305.102 302.985,305.390 302.707,305.124 302.277 C 304.858 301.846,304.439 301.694,304.193 301.940 C 303.525 302.608,301.549 300.730,302.056 299.909 C 302.297 299.519,302.314 299.200,302.094 299.200 C 301.874 299.200,301.497 299.519,301.256 299.909 M292.417 301.581 C 291.630 302.451,290.678 302.972,290.302 302.740 C 289.926 302.507,289.839 302.891,290.108 303.593 C 290.377 304.295,290.643 304.763,290.699 304.635 C 290.754 304.506,291.673 303.410,292.739 302.200 C 293.806 300.990,294.492 300.000,294.263 300.000 C 294.035 300.000,293.204 300.712,292.417 301.581 M254.039 340.628 C 253.160 341.506,253.053 340.292,253.522 334.800 L 254.000 329.200 254.239 334.695 C 254.370 337.717,254.280 340.387,254.039 340.628 M191.647 361.140 C 193.988 362.859,190.315 364.074,185.556 363.156 C 183.600 362.778,181.640 362.419,181.200 362.356 C 180.244 362.221,187.058 360.191,188.847 360.079 C 189.533 360.035,190.793 360.513,191.647 361.140 M128.059 367.203 C 138.428 370.084,133.951 377.639,122.538 376.521 C 116.694 375.948,114.400 374.323,114.400 370.756 C 114.400 366.662,120.448 365.089,128.059 367.203 " stroke="none" fill="#808080" fill-rule="evenodd"></path><path id="path2" d="M184.800 13.645 C 182.380 14.948,179.791 16.446,179.047 16.973 C 177.967 17.739,177.402 17.680,176.247 16.680 C 172.330 13.287,147.887 11.207,144.797 14.003 C 139.352 18.930,144.288 21.915,158.169 22.088 C 167.159 22.200,169.128 22.449,170.439 23.635 C 174.544 27.350,169.966 30.486,161.386 29.837 C 156.407 29.460,154.196 29.707,149.438 31.170 C 146.227 32.157,142.700 33.226,141.600 33.544 C 140.223 33.943,139.522 34.784,139.349 36.244 C 139.096 38.378,136.290 40.928,133.113 41.913 C 132.186 42.201,129.916 44.048,128.069 46.018 L 124.712 49.600 118.956 49.604 C 114.668 49.606,111.976 50.112,108.400 51.585 C 102.071 54.192,99.384 54.212,98.743 51.658 C 97.500 46.706,100.204 44.800,108.472 44.800 C 114.132 44.800,115.200 43.791,115.200 38.439 C 115.200 30.940,98.575 31.988,97.152 39.577 C 96.597 42.531,94.914 44.000,92.083 44.000 C 88.086 44.000,81.786 47.241,79.723 50.357 C 78.065 52.863,76.765 53.752,73.033 54.934 C 68.653 56.320,68.286 56.640,66.306 60.800 C 64.492 64.611,63.745 65.363,60.726 66.419 C 57.208 67.649,56.350 68.712,54.289 74.400 C 53.731 75.940,51.590 78.837,49.531 80.837 C 46.404 83.876,45.619 85.258,44.764 89.237 C 43.347 95.827,42.828 96.607,39.134 97.714 C 35.186 98.897,34.007 100.963,33.312 107.918 C 32.731 113.723,32.141 114.687,27.821 116.891 C 23.768 118.959,22.923 121.321,23.130 129.998 C 23.338 138.686,24.191 140.643,28.389 142.063 C 31.941 143.264,33.971 145.385,32.860 146.734 C 31.483 148.407,30.415 157.100,30.886 162.803 C 31.339 168.292,31.260 168.668,29.208 170.720 C 25.318 174.610,23.392 169.951,22.628 154.800 C 22.050 143.328,19.352 139.830,14.262 143.951 C 11.631 146.081,12.229 169.402,15.109 176.964 C 15.562 178.154,15.722 180.908,15.465 183.083 C 15.020 186.837,15.793 198.074,16.451 197.416 C 16.621 197.246,17.275 194.652,17.904 191.652 C 19.199 185.470,20.726 183.544,24.931 182.780 C 32.213 181.458,31.872 201.736,24.584 203.455 C 21.302 204.229,20.486 205.272,19.684 209.719 C 19.395 211.324,18.440 213.551,17.562 214.667 C 14.100 219.068,13.369 222.899,12.989 238.641 C 12.593 255.039,13.008 256.800,17.267 256.800 C 21.239 256.800,21.528 255.985,23.994 237.802 C 24.904 231.093,25.833 225.123,26.059 224.535 C 26.548 223.259,28.795 223.095,28.812 224.333 C 28.819 224.810,29.160 224.670,29.569 224.022 C 30.208 223.013,30.389 223.041,30.841 224.218 C 31.131 224.973,31.606 225.444,31.896 225.264 C 32.621 224.816,32.509 232.170,31.773 233.338 C 31.021 234.532,30.900 247.589,31.607 251.353 C 32.272 254.900,30.294 259.200,27.998 259.200 C 25.328 259.200,23.938 262.541,23.452 270.132 C 22.743 281.204,25.173 285.146,31.600 283.350 L 34.000 282.680 34.063 272.987 C 34.138 261.524,36.793 257.208,40.039 263.273 C 41.307 265.642,42.002 281.257,40.871 281.956 C 38.909 283.169,41.510 284.660,44.814 284.217 C 50.796 283.414,53.399 287.842,53.663 299.266 C 53.698 300.769,53.894 301.592,54.099 301.093 C 55.571 297.508,63.648 302.897,65.024 308.383 C 65.955 312.092,66.186 312.333,70.000 313.579 C 73.391 314.687,74.249 315.398,75.637 318.252 C 77.723 322.540,78.836 323.522,82.916 324.676 C 85.677 325.457,86.441 326.137,87.482 328.739 C 88.876 332.222,89.588 332.836,93.057 333.546 C 96.132 334.174,98.396 337.232,98.973 341.537 C 99.525 345.655,100.502 346.130,108.066 345.960 C 114.327 345.819,114.586 345.998,116.197 351.600 C 117.624 356.563,119.042 357.336,128.014 358.044 C 136.502 358.713,136.788 358.881,138.360 364.107 C 139.907 369.252,141.967 370.284,150.830 370.355 L 156.460 370.400 160.291 366.510 C 163.362 363.393,164.212 361.923,164.570 359.110 C 165.333 353.118,165.717 352.802,172.228 352.788 C 179.226 352.773,179.639 352.530,180.219 348.085 C 180.741 344.089,181.452 343.451,186.174 342.736 C 190.062 342.148,190.795 341.455,191.600 337.600 C 192.399 333.772,193.302 332.867,196.889 332.293 C 200.710 331.682,201.287 330.966,201.797 326.200 C 202.334 321.176,203.436 320.000,207.607 320.000 C 211.617 320.000,211.685 319.799,211.944 307.243 C 212.124 298.504,212.162 298.400,215.147 298.400 C 216.386 298.400,218.525 298.175,219.900 297.900 L 222.400 297.400 222.400 291.200 C 222.400 280.588,222.221 280.225,217.128 280.481 C 211.985 280.739,208.168 277.570,205.948 271.200 C 205.258 269.220,204.185 266.593,203.562 265.362 C 202.940 264.132,202.800 263.353,203.251 263.631 C 203.701 263.910,204.504 263.797,205.035 263.380 C 206.922 261.899,211.200 264.506,211.200 267.137 C 211.200 271.506,211.776 272.000,216.870 272.000 C 221.967 272.000,221.558 272.399,222.761 266.247 C 223.238 263.808,221.523 257.600,220.373 257.600 C 216.360 257.600,213.600 253.868,213.600 248.441 C 213.599 238.200,210.954 231.235,207.057 231.212 C 204.005 231.195,202.400 229.223,202.400 225.490 C 202.400 221.146,201.282 219.380,197.598 217.906 C 195.157 216.929,194.273 216.019,193.540 213.729 C 191.210 206.445,192.130 206.604,165.200 208.830 C 150.364 210.056,147.123 209.068,145.979 202.972 C 145.229 198.973,141.998 198.105,128.632 198.309 C 116.788 198.489,115.200 197.753,115.200 192.086 C 115.200 188.397,114.876 188.247,107.785 188.639 C 102.792 188.915,102.279 189.113,101.206 191.188 C 100.566 192.426,98.221 195.032,95.996 196.978 C 93.771 198.925,91.289 201.751,90.481 203.259 C 87.048 209.662,57.624 210.974,55.913 204.800 C 54.921 201.219,55.172 196.395,56.445 194.578 C 57.130 193.600,57.476 192.800,57.214 192.800 C 56.952 192.800,57.169 192.338,57.697 191.772 C 58.461 190.954,59.754 190.931,64.033 191.658 C 69.862 192.648,80.710 192.304,82.000 191.087 C 82.440 190.673,83.160 187.940,83.600 185.016 C 84.398 179.714,84.409 179.697,87.200 179.382 C 91.101 178.942,91.282 178.402,87.533 178.388 C 83.030 178.370,82.514 177.753,82.243 172.060 L 82.000 166.961 78.267 165.876 C 74.539 164.792,70.400 161.048,70.400 158.759 C 70.400 158.144,69.363 157.105,68.095 156.449 C 65.320 155.014,62.249 151.497,60.876 148.182 C 59.832 145.662,58.124 144.830,53.960 144.811 C 52.618 144.805,51.088 144.368,50.560 143.840 C 50.032 143.312,49.595 141.782,49.589 140.440 C 49.567 135.507,48.857 134.401,45.707 134.388 C 40.575 134.366,40.394 133.975,40.451 123.027 C 40.506 112.257,41.519 108.982,46.356 103.920 L 48.627 101.544 51.407 104.172 C 53.426 106.080,54.429 107.929,55.068 110.919 C 56.774 118.901,59.589 124.000,62.291 124.000 C 66.519 124.000,66.823 124.405,66.527 129.637 C 66.174 135.895,67.424 137.868,72.548 139.141 C 85.460 142.349,86.911 143.515,90.442 153.520 C 91.604 156.811,91.956 157.109,95.884 158.114 C 98.194 158.705,100.762 159.551,101.589 159.994 C 102.417 160.437,103.998 160.800,105.102 160.800 C 107.249 160.800,109.600 163.391,109.600 165.757 C 109.600 167.941,113.444 169.318,120.000 169.484 C 129.184 169.716,131.573 170.912,132.477 175.732 C 133.257 179.889,134.807 180.300,147.566 179.739 C 158.115 179.275,159.077 179.358,163.342 181.109 L 167.883 182.974 168.374 181.019 C 169.264 177.473,168.269 176.242,164.062 175.684 C 158.436 174.937,157.470 172.486,156.857 157.400 C 156.810 156.247,156.040 156.000,152.498 156.000 C 146.821 156.000,146.590 155.581,146.326 144.800 C 146.202 139.740,145.822 134.803,145.481 133.828 C 145.140 132.854,145.144 131.882,145.490 131.668 C 145.835 131.455,146.204 124.640,146.309 116.524 C 146.432 107.068,146.900 100.253,147.614 97.549 C 148.420 94.493,148.592 90.807,148.237 84.190 C 147.682 73.840,147.783 73.633,153.382 73.612 C 157.318 73.598,158.713 72.017,159.504 66.671 C 160.306 61.246,162.906 56.091,165.606 54.572 C 167.232 53.657,168.842 51.523,170.438 48.165 C 172.510 43.806,173.309 42.925,176.391 41.604 C 180.304 39.927,180.109 40.379,181.667 29.390 C 182.977 20.153,182.587 20.401,199.600 18.029 C 204.000 17.415,207.746 16.888,207.924 16.857 C 208.102 16.826,207.562 16.030,206.724 15.090 C 202.593 10.454,192.023 9.757,184.800 13.645 M225.200 14.358 C 222.120 15.210,219.349 15.929,219.042 15.954 C 217.980 16.042,220.173 20.836,221.632 21.617 C 222.436 22.048,224.700 22.400,226.662 22.400 C 228.624 22.400,232.995 22.972,236.376 23.671 C 239.757 24.370,243.410 24.720,244.494 24.448 C 254.516 21.933,259.331 17.814,255.890 14.701 C 253.354 12.405,233.072 12.179,225.200 14.358 M88.861 24.061 C 86.551 26.372,86.347 26.843,87.561 27.078 C 89.420 27.437,92.237 24.620,91.878 22.761 C 91.643 21.547,91.172 21.751,88.861 24.061 M119.309 24.790 C 116.497 26.563,116.169 29.712,118.503 32.524 C 120.542 34.980,135.070 33.459,137.400 30.545 C 141.469 25.456,126.034 20.546,119.309 24.790 M267.362 25.414 C 264.949 26.614,264.744 27.003,264.962 29.963 L 265.200 33.200 273.423 33.155 C 282.194 33.107,284.314 32.232,284.939 28.403 C 285.567 24.562,273.278 22.472,267.362 25.414 M210.400 27.688 C 210.400 28.763,209.077 31.875,204.491 41.588 C 203.974 42.682,202.692 44.006,201.641 44.530 C 199.252 45.720,198.309 47.382,197.469 51.879 C 196.707 55.956,195.044 57.539,191.486 57.575 C 188.490 57.605,188.000 58.576,188.000 64.485 C 188.000 69.186,186.748 70.400,181.901 70.400 C 180.518 70.400,180.090 70.707,180.506 71.400 C 180.984 72.195,180.857 72.198,179.890 71.415 C 178.829 70.557,178.655 71.021,178.539 75.015 C 178.466 77.537,178.185 82.532,177.915 86.115 L 177.425 92.630 181.552 93.515 C 188.401 94.984,194.400 93.765,194.400 90.903 C 194.400 88.327,199.359 86.094,206.922 85.263 C 212.652 84.633,213.464 84.203,215.149 80.901 C 217.143 76.995,219.028 75.442,222.571 74.784 C 226.054 74.138,226.590 73.551,227.906 68.954 C 229.673 62.779,232.420 61.147,235.636 64.364 C 239.600 68.328,238.050 73.988,232.349 76.370 C 230.499 77.143,229.488 78.199,229.116 79.747 C 228.098 83.988,226.366 86.385,223.123 88.039 C 220.998 89.123,219.493 90.619,218.760 92.373 C 217.311 95.840,214.428 98.063,210.581 98.678 C 207.086 99.237,204.474 101.690,203.641 105.196 C 202.615 109.511,202.328 109.600,189.461 109.600 C 175.704 109.600,171.749 110.867,170.724 115.600 C 170.439 116.920,169.483 119.425,168.601 121.168 L 166.996 124.335 168.865 125.568 C 176.138 130.364,178.357 134.441,178.382 143.057 C 178.399 148.532,179.669 152.064,181.105 150.629 C 181.377 150.356,181.600 150.553,181.600 151.067 C 181.600 151.580,182.050 152.000,182.600 152.001 C 185.847 152.004,187.605 155.469,187.365 161.388 C 187.075 168.531,187.838 170.097,191.944 170.790 C 195.618 171.411,196.397 172.180,197.213 175.988 C 198.588 182.408,205.753 184.911,214.291 181.954 C 216.211 181.289,221.251 180.525,225.491 180.257 C 235.418 179.627,236.800 179.114,236.800 176.057 C 236.800 169.778,238.457 168.833,248.520 169.370 C 256.822 169.813,258.197 169.156,258.926 164.397 C 259.784 158.803,260.944 158.145,268.861 158.763 C 276.510 159.360,277.014 159.119,278.000 154.400 C 278.820 150.472,279.617 149.755,283.865 149.122 C 288.934 148.366,291.200 146.767,291.200 143.946 C 291.200 140.475,292.777 137.764,295.310 136.881 C 297.455 136.134,297.600 135.805,297.600 131.689 C 297.600 126.525,297.587 126.537,304.132 125.885 C 310.389 125.262,310.893 124.875,311.569 120.174 C 312.042 116.887,312.758 115.781,317.120 111.600 C 319.874 108.960,323.146 104.910,324.391 102.600 C 325.636 100.290,326.905 98.400,327.210 98.400 C 332.270 98.400,333.501 89.204,329.051 84.648 C 327.430 82.987,325.980 80.824,325.830 79.841 C 325.358 76.751,323.384 74.602,320.358 73.887 C 318.119 73.357,317.021 72.452,315.654 70.011 C 314.188 67.392,313.288 66.710,310.597 66.178 C 303.323 64.739,299.634 56.643,304.903 53.682 C 309.503 51.097,314.943 53.939,316.333 59.652 C 317.278 63.535,317.398 63.652,323.666 66.800 C 329.593 69.776,330.170 70.293,331.910 74.181 C 334.452 79.863,336.662 82.046,340.490 82.658 C 345.579 83.471,347.291 85.941,347.892 93.341 C 348.331 98.737,348.617 99.622,350.000 99.877 C 352.534 100.344,353.357 101.388,354.371 105.424 C 355.585 110.255,357.118 111.904,360.964 112.519 C 365.122 113.184,365.445 114.083,365.676 125.632 L 365.876 135.600 363.138 135.600 L 360.400 135.600 359.920 126.560 C 359.373 116.283,359.169 115.917,353.361 114.800 L 349.200 114.000 348.400 107.687 C 347.506 100.628,346.314 99.450,340.929 100.300 C 336.698 100.969,336.000 102.011,336.000 107.660 C 336.000 113.938,334.843 116.593,331.501 117.990 C 328.689 119.165,326.911 121.954,326.095 126.472 C 325.540 129.540,323.133 132.273,320.202 133.161 C 319.130 133.486,318.209 134.574,317.921 135.853 C 316.770 140.972,311.726 150.438,309.907 150.895 C 303.378 152.533,304.839 160.786,311.663 160.812 C 315.879 160.829,316.986 161.688,317.968 165.706 C 318.789 169.062,318.897 169.148,325.932 171.979 C 334.866 175.575,336.406 177.340,335.617 183.077 C 334.930 188.069,334.219 188.389,324.400 188.126 C 306.543 187.646,301.600 186.030,301.600 180.673 C 301.600 176.910,298.388 175.983,286.764 176.388 C 274.937 176.800,274.707 176.884,274.162 180.944 C 273.578 185.299,273.358 185.447,264.834 187.193 C 255.976 189.008,256.329 188.769,256.100 193.078 C 255.839 197.979,253.719 198.800,241.331 198.800 C 228.376 198.800,227.816 198.971,228.859 202.606 C 229.267 204.027,229.600 206.306,229.600 207.671 C 229.600 210.955,231.772 212.797,235.663 212.812 C 239.948 212.829,240.848 213.597,241.369 217.685 C 241.958 222.306,242.900 224.000,244.881 224.000 C 246.151 224.000,248.862 224.991,250.152 225.927 C 250.235 225.987,250.883 229.629,251.591 234.019 C 253.550 246.167,253.185 245.329,256.775 245.903 C 261.171 246.606,262.226 248.598,263.202 258.044 C 264.290 268.570,264.382 268.800,267.476 268.800 C 274.612 268.800,275.128 271.406,275.230 307.972 C 275.320 340.382,275.549 339.123,269.588 339.077 C 264.284 339.036,264.000 339.351,264.000 345.273 C 264.000 353.190,261.748 357.246,256.400 358.961 C 253.848 359.779,253.349 360.818,252.249 367.600 L 251.600 371.600 244.800 374.922 C 230.572 381.873,206.208 383.561,166.815 380.325 C 163.743 380.073,160.054 379.376,158.618 378.776 C 153.898 376.803,144.796 377.030,143.069 379.164 C 138.950 384.250,141.821 386.535,153.299 387.305 C 158.315 387.642,162.684 388.076,163.009 388.270 C 164.530 389.177,174.171 389.780,183.600 389.558 C 194.692 389.296,197.457 389.325,216.800 389.901 C 223.620 390.104,231.360 389.975,234.000 389.614 C 236.640 389.253,241.987 388.548,245.883 388.046 C 255.146 386.854,258.731 385.202,259.006 381.998 C 259.976 370.721,262.644 368.000,267.589 373.244 L 270.332 376.152 278.396 375.876 C 287.246 375.573,287.966 375.181,287.988 370.647 C 288.003 367.393,287.671 367.220,279.908 366.437 C 268.311 365.268,267.767 357.390,279.026 353.653 C 282.452 352.516,282.911 352.059,284.000 348.709 C 285.029 345.544,285.428 345.103,286.800 345.609 C 287.680 345.934,288.670 346.044,289.000 345.853 C 289.330 345.662,289.600 345.801,289.600 346.162 C 289.600 346.883,299.833 346.833,300.558 346.109 C 300.805 345.862,301.138 344.116,301.298 342.230 C 301.643 338.147,303.721 335.063,306.403 334.654 C 309.385 334.199,311.930 332.201,313.367 329.188 C 314.187 327.469,315.734 325.984,317.535 325.189 C 322.397 323.042,322.767 322.753,323.917 320.202 C 325.015 317.769,327.650 316.052,332.400 314.676 C 334.339 314.114,335.046 313.241,336.080 310.132 C 338.056 304.193,339.951 302.693,343.961 303.894 C 349.565 305.573,347.041 314.476,339.407 319.962 C 337.466 321.357,334.942 324.298,333.510 326.835 C 331.573 330.269,330.143 331.708,327.181 333.210 C 325.016 334.307,321.555 337.218,319.209 339.915 C 315.032 344.717,310.779 347.200,306.731 347.200 C 303.849 347.200,301.600 348.595,301.600 350.383 C 301.600 352.340,298.664 354.400,295.874 354.400 C 290.555 354.400,288.533 356.674,288.533 362.656 C 288.533 368.989,303.787 367.078,305.115 360.578 C 305.609 358.161,309.944 355.785,315.768 354.741 C 319.225 354.121,321.600 352.365,321.600 350.429 C 321.600 347.957,323.677 346.254,327.582 345.524 C 332.282 344.646,334.078 343.167,334.742 339.628 C 335.326 336.515,336.128 335.754,340.214 334.438 C 343.449 333.395,345.600 330.384,345.600 326.897 C 345.600 324.566,347.511 322.400,349.569 322.400 C 352.284 322.400,354.418 319.776,355.099 315.600 C 356.180 308.965,357.825 305.995,360.899 305.127 C 364.655 304.067,366.397 300.353,366.399 293.400 L 366.400 288.000 369.847 288.000 C 375.757 288.000,376.179 287.246,376.297 276.471 C 376.417 265.511,375.243 263.231,370.357 264.935 C 366.659 266.224,366.058 268.167,366.160 278.496 L 366.252 287.791 361.871 288.244 C 356.198 288.829,355.203 289.731,355.188 294.298 C 355.173 299.159,353.728 301.934,351.050 302.247 C 348.463 302.548,348.142 301.673,347.877 293.600 C 347.768 290.300,347.302 287.336,346.840 287.012 C 346.378 286.689,346.900 286.391,348.000 286.351 C 355.340 286.081,357.454 282.770,357.299 271.793 C 357.187 263.896,357.103 264.000,363.567 264.000 C 369.021 264.000,369.288 263.580,369.927 254.000 C 371.648 228.182,374.320 224.217,376.125 244.800 C 377.508 260.564,377.898 261.600,382.437 261.600 C 386.477 261.600,387.200 258.869,387.200 243.600 C 387.200 228.917,386.622 226.583,382.453 224.427 C 378.827 222.552,378.152 219.148,378.250 203.230 C 378.298 195.514,378.041 186.680,377.680 183.600 C 376.941 177.299,377.225 176.632,381.598 174.401 C 385.959 172.176,387.003 168.855,387.519 155.560 C 388.052 141.841,387.163 138.964,382.268 138.556 C 378.808 138.268,378.741 138.410,378.034 147.600 C 376.453 168.156,369.002 168.541,368.567 148.089 C 368.375 139.104,368.868 138.049,373.615 137.290 C 375.367 137.010,376.838 136.335,376.884 135.791 C 378.026 122.301,376.147 113.020,372.147 112.383 C 367.377 111.624,366.913 111.092,366.568 105.996 C 366.128 99.491,365.347 97.911,361.632 96.016 C 359.855 95.110,358.400 94.285,358.400 94.183 C 358.400 90.023,353.335 80.132,350.297 78.362 C 347.482 76.722,346.551 75.581,345.523 72.514 C 343.976 67.898,342.931 66.777,338.858 65.367 C 336.319 64.488,335.516 63.691,334.651 61.193 C 333.181 56.947,331.643 55.475,328.084 54.906 C 324.784 54.379,320.800 51.717,320.800 50.040 C 320.800 48.326,318.569 46.933,311.756 44.392 C 306.003 42.247,305.120 41.639,303.650 38.814 C 300.894 33.516,292.482 31.518,288.731 35.269 C 284.803 39.197,290.322 46.361,297.302 46.396 C 299.090 46.404,300.290 48.686,299.199 50.001 C 298.429 50.929,296.837 51.134,292.210 50.902 C 285.964 50.588,284.836 49.946,284.812 46.689 C 284.775 41.446,264.129 36.370,255.575 39.500 C 254.213 39.999,253.714 39.560,252.493 36.793 C 251.644 34.869,249.655 32.491,247.726 31.093 C 244.189 28.531,243.193 28.479,235.026 30.421 C 230.923 31.397,224.562 30.674,218.800 28.579 C 213.275 26.570,210.400 26.265,210.400 27.688 M98.240 56.862 C 98.578 60.894,96.505 63.183,91.992 63.759 C 87.132 64.379,85.600 65.297,85.600 67.591 C 85.600 70.907,83.807 73.666,80.582 75.311 C 78.549 76.348,77.079 77.852,76.319 79.672 C 74.896 83.076,70.977 85.593,67.093 85.597 C 63.878 85.600,63.231 86.682,63.211 92.092 C 63.180 100.337,54.940 101.158,53.849 93.025 C 53.251 88.571,54.548 86.638,59.009 85.338 C 62.567 84.300,62.821 84.040,63.468 80.766 C 64.379 76.160,74.316 66.371,80.400 64.085 C 82.974 63.118,84.487 62.051,84.645 61.091 C 85.582 55.382,87.900 53.584,94.000 53.835 C 97.974 53.999,98.002 54.018,98.240 56.862 M146.674 69.959 C 147.287 71.558,144.652 72.220,139.084 71.865 C 136.019 71.670,134.754 71.245,134.582 70.354 C 134.231 68.530,145.978 68.147,146.674 69.959 M300.799 113.033 C 300.800 113.821,300.025 116.864,299.078 119.797 L 297.355 125.128 295.931 120.764 C 294.126 115.237,294.084 113.307,295.697 109.909 L 296.994 107.176 298.896 109.388 C 299.942 110.605,300.798 112.245,300.799 113.033 M135.564 126.995 C 135.138 129.538,135.090 129.565,133.193 128.322 C 127.543 124.620,118.984 126.362,116.396 131.740 C 113.915 136.899,113.600 136.718,113.600 130.133 L 113.600 124.000 117.075 124.000 C 125.673 124.000,131.373 120.689,133.340 114.551 L 134.798 110.000 135.398 117.200 C 135.728 121.160,135.803 125.568,135.564 126.995 M232.976 115.965 C 232.494 119.250,232.000 119.042,232.000 115.553 C 232.000 113.987,232.300 112.891,232.667 113.118 C 233.033 113.344,233.172 114.625,232.976 115.965 M93.725 125.076 C 96.164 128.437,97.692 134.994,96.349 136.337 C 92.937 139.749,88.629 137.717,89.354 133.039 C 90.832 123.506,91.587 122.130,93.725 125.076 M143.597 128.653 C 145.497 130.878,145.628 131.231,144.230 130.358 C 143.261 129.753,141.836 128.086,141.065 126.654 C 140.112 124.884,139.465 124.362,139.044 125.025 C 138.663 125.624,138.420 125.666,138.412 125.133 C 138.389 123.486,139.599 123.075,140.398 124.459 C 140.839 125.222,142.278 127.110,143.597 128.653 M395.809 125.366 C 396.804 125.557,398.244 125.550,399.009 125.350 C 399.774 125.149,398.960 124.993,397.200 125.002 C 395.440 125.011,394.814 125.174,395.809 125.366 M210.987 143.379 C 210.818 145.260,210.677 143.920,210.674 140.400 C 210.671 136.880,210.810 135.340,210.982 136.979 C 211.153 138.617,211.156 141.497,210.987 143.379 M234.561 151.600 C 233.833 158.867,231.739 159.649,231.350 152.800 C 230.939 145.566,231.750 142.591,233.620 144.481 C 234.927 145.802,235.050 146.731,234.561 151.600 M289.415 200.493 C 288.197 201.141,287.440 202.469,287.114 204.529 C 286.758 206.776,286.597 205.895,286.514 201.250 L 286.400 194.901 288.815 197.214 L 291.230 199.528 289.415 200.493 M75.200 222.385 C 75.200 223.890,71.095 224.242,68.519 222.958 L 66.000 221.702 70.600 221.651 C 73.130 221.623,75.200 221.953,75.200 222.385 M83.588 229.934 C 85.822 232.169,86.123 232.834,85.231 233.574 C 79.397 238.416,82.694 257.665,90.021 261.531 C 93.847 263.550,94.049 263.830,95.265 268.815 C 96.949 275.719,98.170 277.836,102.118 280.691 C 103.942 282.011,106.444 284.465,107.677 286.145 C 111.536 291.406,112.607 291.963,118.902 291.982 C 122.819 291.994,124.898 292.354,125.542 293.130 C 126.425 294.194,130.384 295.325,136.828 296.356 C 138.641 296.646,140.602 297.811,142.293 299.604 C 143.743 301.142,145.236 302.400,145.611 302.400 C 145.986 302.400,146.517 303.109,146.792 303.975 C 148.444 309.179,164.870 307.890,165.920 302.474 C 166.184 301.113,166.624 298.850,166.898 297.445 C 167.366 295.039,167.316 294.970,166.033 296.253 C 165.284 297.002,164.344 297.413,163.945 297.166 C 163.545 296.919,163.434 297.278,163.697 297.965 C 164.242 299.385,162.027 303.200,160.658 303.200 C 160.160 303.200,160.438 302.390,161.276 301.400 L 162.800 299.600 161.019 301.107 C 160.039 301.936,159.468 302.987,159.750 303.443 C 160.067 303.956,159.740 304.071,158.890 303.745 C 158.074 303.432,157.715 303.539,158.006 304.009 C 158.274 304.444,157.843 304.805,157.047 304.811 C 156.251 304.817,154.801 305.036,153.825 305.298 C 151.908 305.812,147.170 301.906,147.232 299.862 C 147.250 299.278,147.796 299.781,148.447 300.980 C 149.657 303.209,151.869 304.802,153.747 304.797 C 154.326 304.795,153.630 304.081,152.200 303.209 C 150.770 302.337,149.600 301.202,149.600 300.688 C 149.600 300.148,150.361 300.396,151.400 301.276 C 153.184 302.787,153.189 302.786,151.912 301.200 C 151.204 300.320,150.196 298.880,149.674 298.000 C 148.795 296.521,148.759 296.551,149.195 298.400 L 149.667 300.400 148.462 298.400 C 147.799 297.300,147.244 296.910,147.228 297.533 C 147.213 298.157,146.969 298.435,146.686 298.153 C 146.403 297.870,146.627 297.090,147.184 296.419 C 147.794 295.684,147.864 295.200,147.360 295.200 C 146.821 295.200,146.557 291.774,146.617 285.523 C 146.688 277.989,146.914 276.126,147.634 277.111 C 148.142 277.806,148.850 278.111,149.207 277.788 C 149.564 277.464,149.634 277.591,149.362 278.069 C 149.025 278.661,150.960 278.963,155.434 279.017 C 159.045 279.061,163.016 279.112,164.258 279.131 C 165.584 279.152,166.307 279.503,166.011 279.983 C 165.733 280.432,165.871 280.800,166.318 280.800 C 166.771 280.800,167.234 283.363,167.365 286.600 L 167.600 292.400 170.200 289.862 C 174.279 285.879,174.166 275.765,170.000 272.107 C 168.460 270.755,167.200 269.111,167.200 268.453 C 167.200 265.778,160.056 264.349,159.937 267.000 C 159.887 268.115,159.781 268.156,159.417 267.200 C 158.783 265.535,157.542 264.829,155.200 264.800 C 153.699 264.782,153.484 264.596,154.339 264.055 C 156.477 262.702,156.948 247.081,154.912 245.045 C 154.594 244.727,151.199 244.084,147.367 243.615 L 140.400 242.762 142.938 240.181 C 145.363 237.716,145.753 237.600,151.644 237.600 C 157.734 237.600,157.846 237.563,160.640 234.600 L 163.470 231.600 173.135 231.600 L 182.800 231.600 186.200 235.094 C 188.070 237.016,189.600 239.006,189.600 239.516 C 189.600 240.026,190.094 241.154,190.697 242.022 C 191.300 242.890,192.200 245.508,192.697 247.840 C 193.794 252.987,195.369 256.174,197.784 258.129 C 199.497 259.517,201.011 263.155,203.150 271.028 C 203.731 273.166,205.421 275.855,207.641 278.171 C 212.788 283.544,212.883 289.329,207.906 294.306 C 206.094 296.118,203.955 297.600,203.153 297.600 C 202.351 297.600,201.469 297.965,201.193 298.411 C 200.917 298.858,199.276 299.945,197.546 300.828 C 195.051 302.100,193.872 303.517,191.842 307.681 C 189.434 312.619,186.813 316.017,180.875 321.900 C 179.487 323.275,175.924 326.858,172.959 329.862 L 167.566 335.324 155.983 334.949 C 138.750 334.392,133.864 332.895,131.602 327.481 C 129.873 323.343,126.256 321.607,119.360 321.603 C 112.673 321.600,109.536 320.352,106.201 316.369 C 103.713 313.398,98.110 310.400,95.045 310.400 C 92.344 310.400,91.555 309.288,90.457 303.930 C 89.668 300.084,88.950 298.908,85.312 295.516 C 81.849 292.285,80.814 290.669,79.590 286.582 C 77.990 281.242,76.198 279.051,72.449 277.852 C 70.433 277.207,69.960 276.486,69.129 272.798 C 68.047 267.992,66.643 266.586,62.221 265.879 L 59.200 265.396 59.200 253.990 L 59.200 242.584 63.696 242.023 C 72.644 240.905,76.794 238.078,78.407 232.000 C 79.946 226.199,79.879 226.226,83.588 229.934 M309.119 231.869 C 309.346 232.236,309.218 233.586,308.835 234.869 C 308.275 236.740,308.124 236.858,308.069 235.465 C 308.031 234.511,307.781 233.161,307.514 232.465 C 307.017 231.169,308.374 230.664,309.119 231.869 M129.600 237.843 C 129.600 243.426,129.480 243.802,126.907 246.296 C 123.580 249.521,123.228 248.787,123.211 238.600 L 123.200 232.000 126.400 232.000 L 129.600 232.000 129.600 237.843 M309.193 255.244 C 308.715 258.074,308.812 258.352,310.129 257.904 C 311.235 257.527,311.153 257.737,309.800 258.747 C 308.443 259.760,308.000 260.900,308.000 263.379 C 308.000 265.187,307.789 266.456,307.531 266.198 C 307.274 265.940,307.323 262.054,307.642 257.561 C 308.050 251.798,308.442 249.789,308.974 250.739 C 309.388 251.479,309.486 253.506,309.193 255.244 M119.763 255.105 C 120.305 255.817,120.761 256.604,120.775 256.853 C 120.827 257.790,126.924 260.686,130.000 261.235 C 135.318 262.185,137.616 263.889,136.596 266.128 C 135.614 268.284,134.400 268.603,134.400 266.704 C 134.400 265.594,133.680 265.479,129.400 265.903 C 113.771 267.452,113.207 267.454,111.976 265.972 C 110.973 264.763,109.015 257.669,108.851 254.651 C 108.734 252.484,118.064 252.873,119.763 255.105 M305.508 266.000 C 305.565 267.340,305.440 267.405,304.739 266.400 C 304.116 265.506,304.032 265.857,304.410 267.778 C 304.821 269.867,304.534 270.739,302.895 272.378 C 301.740 273.533,301.319 274.400,301.912 274.400 C 303.256 274.400,305.350 272.046,305.826 270.000 C 306.031 269.120,306.081 269.603,305.938 271.073 C 305.786 272.623,304.859 274.503,303.729 275.551 C 302.657 276.544,301.533 278.581,301.231 280.078 C 300.083 285.757,299.941 285.989,298.898 283.896 C 297.650 281.393,295.530 281.051,294.953 283.258 L 294.499 284.994 292.342 283.297 C 291.155 282.364,289.423 281.546,288.492 281.480 C 287.561 281.414,288.420 281.144,290.400 280.880 C 293.792 280.428,294.015 280.244,294.258 277.699 C 294.536 274.797,294.672 274.831,289.074 276.409 C 288.263 276.637,288.680 276.295,290.000 275.648 C 291.942 274.697,292.095 274.454,290.800 274.379 C 289.920 274.328,291.493 273.631,294.295 272.830 C 300.583 271.033,303.156 268.624,303.808 263.922 C 304.304 260.341,305.322 261.585,305.508 266.000 M205.368 263.699 C 204.775 264.291,207.592 270.053,208.855 270.834 C 209.337 271.132,209.136 270.224,208.408 268.816 C 207.680 267.408,207.272 265.766,207.501 265.169 C 207.785 264.429,207.506 264.240,206.628 264.577 C 205.768 264.907,205.531 264.759,205.916 264.136 C 206.533 263.138,206.197 262.870,205.368 263.699 M298.341 269.129 C 299.625 270.676,298.338 271.274,295.531 270.435 L 293.200 269.738 295.600 269.613 C 297.684 269.504,297.790 269.397,296.400 268.800 C 295.169 268.271,295.100 268.099,296.102 268.056 C 296.818 268.025,297.826 268.508,298.341 269.129 M308.720 288.707 C 308.764 290.636,309.217 293.607,309.727 295.310 C 310.447 297.711,310.431 298.897,309.655 300.600 L 308.655 302.794 307.127 299.654 C 305.374 296.051,305.035 287.100,306.512 283.452 L 307.425 281.200 308.033 283.200 C 308.367 284.300,308.676 286.778,308.720 288.707 M35.055 286.200 C 31.786 294.146,34.178 303.200,39.545 303.200 C 41.945 303.200,43.591 305.498,44.373 309.940 C 45.406 315.817,47.208 319.129,50.124 320.512 C 53.070 321.911,55.200 325.145,55.200 328.221 C 55.200 330.423,57.914 333.169,60.800 333.888 C 63.944 334.671,64.591 335.361,66.167 339.613 C 67.549 343.343,67.916 343.687,71.859 344.957 C 75.819 346.232,79.113 348.898,79.173 350.876 C 79.230 352.755,82.251 354.264,87.956 355.266 C 94.398 356.397,96.800 357.993,96.800 361.142 C 96.800 366.785,111.405 368.987,113.083 363.597 C 114.297 359.701,108.782 355.221,102.753 355.204 C 100.203 355.198,98.318 353.390,97.703 350.361 C 97.232 348.036,96.768 347.565,94.772 347.377 C 89.745 346.903,85.799 344.835,84.434 341.958 C 83.694 340.399,81.131 337.750,78.561 335.887 C 71.333 330.650,66.450 325.562,63.956 320.669 C 62.118 317.062,61.154 316.029,59.233 315.607 C 55.662 314.823,53.600 311.729,53.600 307.158 C 53.600 301.852,53.103 300.896,50.545 301.276 C 47.280 301.761,46.346 300.675,45.160 295.014 C 43.127 285.319,37.454 280.370,35.055 286.200 M289.600 291.868 C 289.600 295.132,289.203 297.676,288.600 298.278 C 287.953 298.923,287.439 303.008,287.145 309.838 C 286.737 319.325,286.676 318.586,286.545 302.572 C 286.402 284.970,286.420 284.755,288.000 285.600 C 289.358 286.327,289.600 287.275,289.600 291.868 M151.098 297.069 C 151.702 297.801,151.916 298.400,151.574 298.400 C 151.232 298.400,151.579 299.093,152.346 299.941 C 154.078 301.854,156.494 301.470,159.098 298.865 C 160.938 297.025,160.146 296.404,157.817 297.859 C 157.276 298.197,156.106 298.085,155.217 297.609 C 154.327 297.133,153.600 296.949,153.600 297.200 C 153.600 297.451,152.790 297.225,151.800 296.697 C 150.168 295.827,150.102 295.862,151.098 297.069 M158.803 298.396 C 157.864 299.914,155.467 300.803,155.467 299.633 C 155.467 299.039,155.910 298.723,156.452 298.931 C 156.995 299.139,157.676 298.925,157.966 298.455 C 158.257 297.985,158.674 297.600,158.894 297.600 C 159.114 297.600,159.073 297.958,158.803 298.396 M164.440 301.522 C 163.371 303.591,161.051 305.600,159.733 305.600 C 159.528 305.600,160.584 304.376,162.080 302.880 C 163.576 301.384,164.828 299.494,164.863 298.680 C 164.898 297.866,165.100 297.626,165.312 298.146 C 165.524 298.666,165.132 300.185,164.440 301.522 M302.056 299.909 C 301.549 300.730,303.525 302.608,304.193 301.940 C 304.439 301.694,304.858 301.846,305.124 302.277 C 305.804 303.378,303.619 302.944,302.090 301.674 C 300.973 300.748,300.976 299.200,302.094 299.200 C 302.314 299.200,302.297 299.519,302.056 299.909 M292.739 302.200 C 291.673 303.410,290.754 304.506,290.699 304.635 C 290.643 304.763,290.377 304.295,290.108 303.593 C 289.839 302.891,289.926 302.507,290.302 302.740 C 290.678 302.972,291.630 302.451,292.417 301.581 C 293.204 300.712,294.035 300.000,294.263 300.000 C 294.492 300.000,293.806 300.990,292.739 302.200 M116.200 367.225 C 113.576 368.280,113.663 373.080,116.338 374.833 C 120.738 377.716,131.772 376.838,133.895 373.436 C 136.595 369.110,123.203 364.410,116.200 367.225 " stroke="none" fill="#ffffff" fill-rule="evenodd"></path></g></svg>