<?xml version="1.0" standalone="no"?>
<!DOCTYPE svg PUBLIC "-//W3C//DTD SVG 20010904//EN"
 "http://www.w3.org/TR/2001/REC-SVG-20010904/DTD/svg10.dtd">
<svg version="1.0" xmlns="http://www.w3.org/2000/svg"
 width="37.000000pt" height="37.000000pt" viewBox="0 0 37.000000 37.000000"
 preserveAspectRatio="xMidYMid meet">

<g transform="translate(0.000000,37.000000) scale(0.100000,-0.100000)"
  stroke="none">
<path d="M0 293 l0 -78 19 40 c22 48 53 78 101 99 l35 15 -77 1 -78 0 0 -77z"/>
<path fill="#006c7a" d="M245 359 c37 -10 93 -63 111 -104 13 -28 13 -26 14 43 l0 72 -77 -1
c-62 -1 -72 -3 -48 -10z"/>
<path fill="#006c7a" d="M161 321 c-12 -16 -21 -41 -21 -55 0 -29 19 -76 31 -76 12 0 39 -55
39 -79 0 -11 -11 -33 -25 -49 -35 -42 -36 -41 31 -33 18 2 36 55 29 83 -4 15
-16 36 -27 48 -11 12 -18 22 -17 23 2 1 21 11 42 21 20 11 35 21 33 23 -2 3
-15 -2 -28 -10 -46 -30 -62 -29 -81 3 -20 33 -17 66 8 104 24 36 11 33 -14 -3z"/>
<path fill="#006c7a" d="M82 218 c16 -16 38 -28 51 -27 19 1 18 2 -7 9 -16 5 -38 17 -50 27
-12 10 -9 6 6 -9z"/>
<path d="M0 78 l0 -78 73 0 c69 1 71 1 42 14 -42 19 -74 52 -96 100 l-19 41 0
-77z"/>
<path fill="#006c7a" d="M360 127 c0 -27 -51 -85 -92 -106 l-43 -21 73 0 72 0 0 70 c0 39 -2
70 -5 70 -3 0 -5 -6 -5 -13z"/>
</g>
</svg>
